<mxfile host="app.diagrams.net" modified="2023-11-15T12:54:52.562Z" agent="Mozilla/5.0 (Windows NT 10.0; Win64; x64) AppleWebKit/537.36 (KHTML, like Gecko) Chrome/119.0.0.0 Safari/537.36" version="22.1.1" etag="IqSP0LonqHwoho5L6yk6" type="device">
  <diagram id="jfQPMkhc_m6EBnlb_j9M" name="Registration System">
    <mxGraphModel dx="1400" dy="696" grid="1" gridSize="10" guides="1" tooltips="1" connect="1" arrows="1" fold="1" page="1" pageScale="1" pageWidth="850" pageHeight="1100" math="0" shadow="0">
      <root>
        <mxCell id="0" />
        <mxCell id="1" parent="0" />
        <mxCell id="7bqAnTobCl2Co9yz6yof-5" style="edgeStyle=orthogonalEdgeStyle;rounded=0;orthogonalLoop=1;jettySize=auto;html=1;entryX=0;entryY=0.5;entryDx=0;entryDy=0;endArrow=none;endFill=0;" edge="1" parent="1" source="7bqAnTobCl2Co9yz6yof-1" target="7bqAnTobCl2Co9yz6yof-3">
          <mxGeometry relative="1" as="geometry" />
        </mxCell>
        <mxCell id="7bqAnTobCl2Co9yz6yof-13" style="edgeStyle=orthogonalEdgeStyle;rounded=0;orthogonalLoop=1;jettySize=auto;html=1;entryX=0;entryY=0.5;entryDx=0;entryDy=0;endArrow=none;endFill=0;" edge="1" parent="1" source="7bqAnTobCl2Co9yz6yof-1" target="7bqAnTobCl2Co9yz6yof-12">
          <mxGeometry relative="1" as="geometry" />
        </mxCell>
        <mxCell id="7bqAnTobCl2Co9yz6yof-24" style="edgeStyle=orthogonalEdgeStyle;shape=connector;rounded=0;orthogonalLoop=1;jettySize=auto;html=1;entryX=0;entryY=0.5;entryDx=0;entryDy=0;labelBackgroundColor=default;strokeColor=default;align=center;verticalAlign=middle;fontFamily=Helvetica;fontSize=11;fontColor=default;endArrow=none;endFill=0;" edge="1" parent="1" source="7bqAnTobCl2Co9yz6yof-1" target="7bqAnTobCl2Co9yz6yof-23">
          <mxGeometry relative="1" as="geometry" />
        </mxCell>
        <mxCell id="7bqAnTobCl2Co9yz6yof-1" value="Admin" style="shape=umlActor;verticalLabelPosition=bottom;verticalAlign=top;html=1;outlineConnect=0;" vertex="1" parent="1">
          <mxGeometry x="160" y="220" width="30" height="60" as="geometry" />
        </mxCell>
        <mxCell id="7bqAnTobCl2Co9yz6yof-8" style="rounded=0;orthogonalLoop=1;jettySize=auto;html=1;exitX=1;exitY=0;exitDx=0;exitDy=0;entryX=0;entryY=0.5;entryDx=0;entryDy=0;endArrow=none;endFill=0;" edge="1" parent="1" source="7bqAnTobCl2Co9yz6yof-3" target="7bqAnTobCl2Co9yz6yof-7">
          <mxGeometry relative="1" as="geometry" />
        </mxCell>
        <mxCell id="7bqAnTobCl2Co9yz6yof-3" value="Login" style="ellipse;whiteSpace=wrap;html=1;" vertex="1" parent="1">
          <mxGeometry x="390" y="120" width="90" height="50" as="geometry" />
        </mxCell>
        <mxCell id="7bqAnTobCl2Co9yz6yof-6" style="rounded=0;orthogonalLoop=1;jettySize=auto;html=1;exitX=0;exitY=0.5;exitDx=0;exitDy=0;entryX=1;entryY=0.5;entryDx=0;entryDy=0;endArrow=none;endFill=0;" edge="1" parent="1" source="7bqAnTobCl2Co9yz6yof-4" target="7bqAnTobCl2Co9yz6yof-3">
          <mxGeometry relative="1" as="geometry" />
        </mxCell>
        <mxCell id="7bqAnTobCl2Co9yz6yof-4" value="2FA" style="ellipse;whiteSpace=wrap;html=1;" vertex="1" parent="1">
          <mxGeometry x="520" y="120" width="90" height="50" as="geometry" />
        </mxCell>
        <mxCell id="7bqAnTobCl2Co9yz6yof-7" value="Google / Facebook login" style="ellipse;whiteSpace=wrap;html=1;" vertex="1" parent="1">
          <mxGeometry x="520" y="60" width="90" height="50" as="geometry" />
        </mxCell>
        <mxCell id="7bqAnTobCl2Co9yz6yof-11" style="rounded=0;orthogonalLoop=1;jettySize=auto;html=1;exitX=0;exitY=0.5;exitDx=0;exitDy=0;entryX=1;entryY=1;entryDx=0;entryDy=0;endArrow=none;endFill=0;" edge="1" parent="1" source="7bqAnTobCl2Co9yz6yof-9" target="7bqAnTobCl2Co9yz6yof-3">
          <mxGeometry relative="1" as="geometry" />
        </mxCell>
        <mxCell id="7bqAnTobCl2Co9yz6yof-9" value="Web App" style="ellipse;whiteSpace=wrap;html=1;" vertex="1" parent="1">
          <mxGeometry x="520" y="180" width="90" height="50" as="geometry" />
        </mxCell>
        <mxCell id="7bqAnTobCl2Co9yz6yof-19" style="rounded=0;orthogonalLoop=1;jettySize=auto;html=1;exitX=0.5;exitY=0;exitDx=0;exitDy=0;entryX=0;entryY=0.5;entryDx=0;entryDy=0;endArrow=none;endFill=0;" edge="1" parent="1" source="7bqAnTobCl2Co9yz6yof-12" target="7bqAnTobCl2Co9yz6yof-15">
          <mxGeometry relative="1" as="geometry">
            <mxPoint x="520" y="420" as="targetPoint" />
          </mxGeometry>
        </mxCell>
        <mxCell id="7bqAnTobCl2Co9yz6yof-20" style="rounded=0;orthogonalLoop=1;jettySize=auto;html=1;exitX=1;exitY=0;exitDx=0;exitDy=0;entryX=0;entryY=0.5;entryDx=0;entryDy=0;endArrow=none;endFill=0;" edge="1" parent="1" source="7bqAnTobCl2Co9yz6yof-12" target="7bqAnTobCl2Co9yz6yof-16">
          <mxGeometry relative="1" as="geometry" />
        </mxCell>
        <mxCell id="7bqAnTobCl2Co9yz6yof-21" style="rounded=0;orthogonalLoop=1;jettySize=auto;html=1;exitX=1;exitY=0.5;exitDx=0;exitDy=0;entryX=0;entryY=0.5;entryDx=0;entryDy=0;endArrow=none;endFill=0;" edge="1" parent="1" source="7bqAnTobCl2Co9yz6yof-12" target="7bqAnTobCl2Co9yz6yof-17">
          <mxGeometry relative="1" as="geometry" />
        </mxCell>
        <mxCell id="7bqAnTobCl2Co9yz6yof-22" style="rounded=0;orthogonalLoop=1;jettySize=auto;html=1;exitX=1;exitY=1;exitDx=0;exitDy=0;entryX=0;entryY=0.5;entryDx=0;entryDy=0;endArrow=none;endFill=0;" edge="1" parent="1" source="7bqAnTobCl2Co9yz6yof-12" target="7bqAnTobCl2Co9yz6yof-18">
          <mxGeometry relative="1" as="geometry" />
        </mxCell>
        <mxCell id="7bqAnTobCl2Co9yz6yof-33" style="edgeStyle=none;shape=connector;rounded=0;orthogonalLoop=1;jettySize=auto;html=1;exitX=0.5;exitY=1;exitDx=0;exitDy=0;entryX=0;entryY=0.5;entryDx=0;entryDy=0;labelBackgroundColor=default;strokeColor=default;align=center;verticalAlign=middle;fontFamily=Helvetica;fontSize=11;fontColor=default;endArrow=none;endFill=0;" edge="1" parent="1" source="7bqAnTobCl2Co9yz6yof-12" target="7bqAnTobCl2Co9yz6yof-32">
          <mxGeometry relative="1" as="geometry" />
        </mxCell>
        <mxCell id="7bqAnTobCl2Co9yz6yof-39" style="edgeStyle=none;shape=connector;rounded=0;orthogonalLoop=1;jettySize=auto;html=1;exitX=0;exitY=1;exitDx=0;exitDy=0;entryX=0;entryY=0.5;entryDx=0;entryDy=0;labelBackgroundColor=default;strokeColor=default;align=center;verticalAlign=middle;fontFamily=Helvetica;fontSize=11;fontColor=default;endArrow=none;endFill=0;" edge="1" parent="1" source="7bqAnTobCl2Co9yz6yof-12" target="7bqAnTobCl2Co9yz6yof-38">
          <mxGeometry relative="1" as="geometry" />
        </mxCell>
        <mxCell id="7bqAnTobCl2Co9yz6yof-12" value="Dashboard" style="ellipse;whiteSpace=wrap;html=1;" vertex="1" parent="1">
          <mxGeometry x="390" y="500" width="90" height="50" as="geometry" />
        </mxCell>
        <mxCell id="7bqAnTobCl2Co9yz6yof-15" value="Aggregates" style="ellipse;whiteSpace=wrap;html=1;" vertex="1" parent="1">
          <mxGeometry x="520" y="380" width="90" height="50" as="geometry" />
        </mxCell>
        <mxCell id="7bqAnTobCl2Co9yz6yof-16" value="Changes over time" style="ellipse;whiteSpace=wrap;html=1;" vertex="1" parent="1">
          <mxGeometry x="520" y="440" width="90" height="50" as="geometry" />
        </mxCell>
        <mxCell id="7bqAnTobCl2Co9yz6yof-17" value="Query indicators" style="ellipse;whiteSpace=wrap;html=1;" vertex="1" parent="1">
          <mxGeometry x="520" y="500" width="90" height="50" as="geometry" />
        </mxCell>
        <mxCell id="7bqAnTobCl2Co9yz6yof-18" value="Charts and numeric values" style="ellipse;whiteSpace=wrap;html=1;" vertex="1" parent="1">
          <mxGeometry x="520" y="560" width="90" height="50" as="geometry" />
        </mxCell>
        <mxCell id="7bqAnTobCl2Co9yz6yof-26" style="edgeStyle=none;shape=connector;rounded=0;orthogonalLoop=1;jettySize=auto;html=1;exitX=1;exitY=0.5;exitDx=0;exitDy=0;entryX=0;entryY=0.5;entryDx=0;entryDy=0;labelBackgroundColor=default;strokeColor=default;align=center;verticalAlign=middle;fontFamily=Helvetica;fontSize=11;fontColor=default;endArrow=none;endFill=0;" edge="1" parent="1" source="7bqAnTobCl2Co9yz6yof-23" target="7bqAnTobCl2Co9yz6yof-25">
          <mxGeometry relative="1" as="geometry" />
        </mxCell>
        <mxCell id="7bqAnTobCl2Co9yz6yof-29" style="edgeStyle=none;shape=connector;rounded=0;orthogonalLoop=1;jettySize=auto;html=1;exitX=1;exitY=0.5;exitDx=0;exitDy=0;entryX=0;entryY=0.5;entryDx=0;entryDy=0;labelBackgroundColor=default;strokeColor=default;align=center;verticalAlign=middle;fontFamily=Helvetica;fontSize=11;fontColor=default;endArrow=none;endFill=0;" edge="1" parent="1" source="7bqAnTobCl2Co9yz6yof-23" target="7bqAnTobCl2Co9yz6yof-28">
          <mxGeometry relative="1" as="geometry" />
        </mxCell>
        <mxCell id="7bqAnTobCl2Co9yz6yof-43" style="edgeStyle=none;shape=connector;rounded=0;orthogonalLoop=1;jettySize=auto;html=1;exitX=1;exitY=0.5;exitDx=0;exitDy=0;entryX=0;entryY=0.5;entryDx=0;entryDy=0;labelBackgroundColor=default;strokeColor=default;align=center;verticalAlign=middle;fontFamily=Helvetica;fontSize=11;fontColor=default;endArrow=none;endFill=0;" edge="1" parent="1" source="7bqAnTobCl2Co9yz6yof-23" target="7bqAnTobCl2Co9yz6yof-40">
          <mxGeometry relative="1" as="geometry" />
        </mxCell>
        <mxCell id="7bqAnTobCl2Co9yz6yof-49" style="edgeStyle=none;shape=connector;rounded=0;orthogonalLoop=1;jettySize=auto;html=1;exitX=1;exitY=0.5;exitDx=0;exitDy=0;entryX=0;entryY=0.5;entryDx=0;entryDy=0;labelBackgroundColor=default;strokeColor=default;align=center;verticalAlign=middle;fontFamily=Helvetica;fontSize=11;fontColor=default;endArrow=none;endFill=0;" edge="1" parent="1" source="7bqAnTobCl2Co9yz6yof-23" target="7bqAnTobCl2Co9yz6yof-48">
          <mxGeometry relative="1" as="geometry" />
        </mxCell>
        <mxCell id="7bqAnTobCl2Co9yz6yof-67" style="edgeStyle=none;shape=connector;rounded=0;orthogonalLoop=1;jettySize=auto;html=1;exitX=1;exitY=0.5;exitDx=0;exitDy=0;entryX=0;entryY=0.5;entryDx=0;entryDy=0;labelBackgroundColor=default;strokeColor=default;align=center;verticalAlign=middle;fontFamily=Helvetica;fontSize=11;fontColor=default;endArrow=none;endFill=0;" edge="1" parent="1" source="7bqAnTobCl2Co9yz6yof-23" target="7bqAnTobCl2Co9yz6yof-58">
          <mxGeometry relative="1" as="geometry" />
        </mxCell>
        <mxCell id="7bqAnTobCl2Co9yz6yof-76" style="edgeStyle=none;shape=connector;rounded=0;orthogonalLoop=1;jettySize=auto;html=1;exitX=1;exitY=0.5;exitDx=0;exitDy=0;entryX=0;entryY=0.5;entryDx=0;entryDy=0;labelBackgroundColor=default;strokeColor=default;align=center;verticalAlign=middle;fontFamily=Helvetica;fontSize=11;fontColor=default;endArrow=none;endFill=0;" edge="1" parent="1" source="7bqAnTobCl2Co9yz6yof-23" target="7bqAnTobCl2Co9yz6yof-68">
          <mxGeometry relative="1" as="geometry" />
        </mxCell>
        <mxCell id="7bqAnTobCl2Co9yz6yof-85" style="edgeStyle=none;shape=connector;rounded=0;orthogonalLoop=1;jettySize=auto;html=1;exitX=1;exitY=0.5;exitDx=0;exitDy=0;entryX=0;entryY=0.5;entryDx=0;entryDy=0;labelBackgroundColor=default;strokeColor=default;align=center;verticalAlign=middle;fontFamily=Helvetica;fontSize=11;fontColor=default;endArrow=none;endFill=0;" edge="1" parent="1" source="7bqAnTobCl2Co9yz6yof-23" target="7bqAnTobCl2Co9yz6yof-84">
          <mxGeometry relative="1" as="geometry" />
        </mxCell>
        <mxCell id="7bqAnTobCl2Co9yz6yof-23" value="Product management" style="ellipse;whiteSpace=wrap;html=1;" vertex="1" parent="1">
          <mxGeometry x="390" y="1010" width="90" height="50" as="geometry" />
        </mxCell>
        <mxCell id="7bqAnTobCl2Co9yz6yof-25" value="CRUD" style="ellipse;whiteSpace=wrap;html=1;" vertex="1" parent="1">
          <mxGeometry x="520" y="780" width="90" height="50" as="geometry" />
        </mxCell>
        <mxCell id="7bqAnTobCl2Co9yz6yof-28" value="History management" style="ellipse;whiteSpace=wrap;html=1;fillColor=#ffe6cc;strokeColor=#d79b00;" vertex="1" parent="1">
          <mxGeometry x="520" y="850" width="90" height="50" as="geometry" />
        </mxCell>
        <mxCell id="7bqAnTobCl2Co9yz6yof-31" style="edgeStyle=none;shape=connector;rounded=0;orthogonalLoop=1;jettySize=auto;html=1;exitX=0;exitY=0.5;exitDx=0;exitDy=0;entryX=0.5;entryY=1;entryDx=0;entryDy=0;labelBackgroundColor=default;strokeColor=default;align=center;verticalAlign=middle;fontFamily=Helvetica;fontSize=11;fontColor=default;endArrow=none;endFill=0;" edge="1" parent="1" source="7bqAnTobCl2Co9yz6yof-30" target="7bqAnTobCl2Co9yz6yof-3">
          <mxGeometry relative="1" as="geometry" />
        </mxCell>
        <mxCell id="7bqAnTobCl2Co9yz6yof-30" value="Phone App" style="ellipse;whiteSpace=wrap;html=1;fillColor=#ffe6cc;strokeColor=#d79b00;" vertex="1" parent="1">
          <mxGeometry x="520" y="240" width="90" height="50" as="geometry" />
        </mxCell>
        <mxCell id="7bqAnTobCl2Co9yz6yof-36" style="edgeStyle=none;shape=connector;rounded=0;orthogonalLoop=1;jettySize=auto;html=1;exitX=1;exitY=0.5;exitDx=0;exitDy=0;entryX=0;entryY=0.5;entryDx=0;entryDy=0;labelBackgroundColor=default;strokeColor=default;align=center;verticalAlign=middle;fontFamily=Helvetica;fontSize=11;fontColor=default;endArrow=none;endFill=0;" edge="1" parent="1" source="7bqAnTobCl2Co9yz6yof-32" target="7bqAnTobCl2Co9yz6yof-34">
          <mxGeometry relative="1" as="geometry" />
        </mxCell>
        <mxCell id="7bqAnTobCl2Co9yz6yof-37" style="edgeStyle=none;shape=connector;rounded=0;orthogonalLoop=1;jettySize=auto;html=1;exitX=1;exitY=0.5;exitDx=0;exitDy=0;entryX=0;entryY=0.5;entryDx=0;entryDy=0;labelBackgroundColor=default;strokeColor=default;align=center;verticalAlign=middle;fontFamily=Helvetica;fontSize=11;fontColor=default;endArrow=none;endFill=0;" edge="1" parent="1" source="7bqAnTobCl2Co9yz6yof-32" target="7bqAnTobCl2Co9yz6yof-35">
          <mxGeometry relative="1" as="geometry" />
        </mxCell>
        <mxCell id="7bqAnTobCl2Co9yz6yof-32" value="User device indicator" style="ellipse;whiteSpace=wrap;html=1;fillColor=#fff2cc;strokeColor=#d6b656;" vertex="1" parent="1">
          <mxGeometry x="520" y="630" width="90" height="50" as="geometry" />
        </mxCell>
        <mxCell id="7bqAnTobCl2Co9yz6yof-34" value="Google Analitics" style="ellipse;whiteSpace=wrap;html=1;fillColor=#fff2cc;strokeColor=#d6b656;" vertex="1" parent="1">
          <mxGeometry x="650" y="600" width="90" height="50" as="geometry" />
        </mxCell>
        <mxCell id="7bqAnTobCl2Co9yz6yof-35" value="Proprietary" style="ellipse;whiteSpace=wrap;html=1;fillColor=#fff2cc;strokeColor=#d6b656;" vertex="1" parent="1">
          <mxGeometry x="650" y="660" width="90" height="50" as="geometry" />
        </mxCell>
        <mxCell id="7bqAnTobCl2Co9yz6yof-38" value="Orders overview" style="ellipse;whiteSpace=wrap;html=1;" vertex="1" parent="1">
          <mxGeometry x="520" y="700" width="90" height="50" as="geometry" />
        </mxCell>
        <mxCell id="7bqAnTobCl2Co9yz6yof-44" style="edgeStyle=none;shape=connector;rounded=0;orthogonalLoop=1;jettySize=auto;html=1;exitX=1;exitY=0;exitDx=0;exitDy=0;entryX=0;entryY=0.5;entryDx=0;entryDy=0;labelBackgroundColor=default;strokeColor=default;align=center;verticalAlign=middle;fontFamily=Helvetica;fontSize=11;fontColor=default;endArrow=none;endFill=0;" edge="1" parent="1" source="7bqAnTobCl2Co9yz6yof-40" target="7bqAnTobCl2Co9yz6yof-41">
          <mxGeometry relative="1" as="geometry" />
        </mxCell>
        <mxCell id="7bqAnTobCl2Co9yz6yof-45" style="edgeStyle=none;shape=connector;rounded=0;orthogonalLoop=1;jettySize=auto;html=1;exitX=1;exitY=0.5;exitDx=0;exitDy=0;entryX=0;entryY=0.5;entryDx=0;entryDy=0;labelBackgroundColor=default;strokeColor=default;align=center;verticalAlign=middle;fontFamily=Helvetica;fontSize=11;fontColor=default;endArrow=none;endFill=0;" edge="1" parent="1" source="7bqAnTobCl2Co9yz6yof-40" target="7bqAnTobCl2Co9yz6yof-42">
          <mxGeometry relative="1" as="geometry" />
        </mxCell>
        <mxCell id="7bqAnTobCl2Co9yz6yof-47" style="edgeStyle=none;shape=connector;rounded=0;orthogonalLoop=1;jettySize=auto;html=1;exitX=1;exitY=1;exitDx=0;exitDy=0;entryX=0;entryY=0.5;entryDx=0;entryDy=0;labelBackgroundColor=default;strokeColor=default;align=center;verticalAlign=middle;fontFamily=Helvetica;fontSize=11;fontColor=default;endArrow=none;endFill=0;" edge="1" parent="1" source="7bqAnTobCl2Co9yz6yof-40" target="7bqAnTobCl2Co9yz6yof-46">
          <mxGeometry relative="1" as="geometry" />
        </mxCell>
        <mxCell id="7bqAnTobCl2Co9yz6yof-40" value="Multi media management" style="ellipse;whiteSpace=wrap;html=1;" vertex="1" parent="1">
          <mxGeometry x="520" y="930" width="90" height="50" as="geometry" />
        </mxCell>
        <mxCell id="7bqAnTobCl2Co9yz6yof-41" value="Photos" style="ellipse;whiteSpace=wrap;html=1;" vertex="1" parent="1">
          <mxGeometry x="640" y="870" width="90" height="50" as="geometry" />
        </mxCell>
        <mxCell id="7bqAnTobCl2Co9yz6yof-42" value="Videos" style="ellipse;whiteSpace=wrap;html=1;fillColor=#ffe6cc;strokeColor=#d79b00;" vertex="1" parent="1">
          <mxGeometry x="640" y="930" width="90" height="50" as="geometry" />
        </mxCell>
        <mxCell id="7bqAnTobCl2Co9yz6yof-46" value="Audio" style="ellipse;whiteSpace=wrap;html=1;fillColor=#ffe6cc;strokeColor=#d79b00;" vertex="1" parent="1">
          <mxGeometry x="640" y="990" width="90" height="50" as="geometry" />
        </mxCell>
        <mxCell id="7bqAnTobCl2Co9yz6yof-73" style="edgeStyle=none;shape=connector;rounded=0;orthogonalLoop=1;jettySize=auto;html=1;exitX=1;exitY=0.5;exitDx=0;exitDy=0;entryX=0;entryY=0.5;entryDx=0;entryDy=0;labelBackgroundColor=default;strokeColor=default;align=center;verticalAlign=middle;fontFamily=Helvetica;fontSize=11;fontColor=default;endArrow=none;endFill=0;" edge="1" parent="1" source="7bqAnTobCl2Co9yz6yof-48" target="7bqAnTobCl2Co9yz6yof-70">
          <mxGeometry relative="1" as="geometry" />
        </mxCell>
        <mxCell id="7bqAnTobCl2Co9yz6yof-48" value="Search, sort, filter" style="ellipse;whiteSpace=wrap;html=1;" vertex="1" parent="1">
          <mxGeometry x="520" y="1080" width="90" height="50" as="geometry" />
        </mxCell>
        <mxCell id="7bqAnTobCl2Co9yz6yof-51" style="edgeStyle=none;shape=connector;rounded=0;orthogonalLoop=1;jettySize=auto;html=1;exitX=0;exitY=0.5;exitDx=0;exitDy=0;entryX=1;entryY=0.5;entryDx=0;entryDy=0;labelBackgroundColor=default;strokeColor=default;align=center;verticalAlign=middle;fontFamily=Helvetica;fontSize=11;fontColor=default;endArrow=none;endFill=0;" edge="1" parent="1" source="7bqAnTobCl2Co9yz6yof-50" target="7bqAnTobCl2Co9yz6yof-23">
          <mxGeometry relative="1" as="geometry" />
        </mxCell>
        <mxCell id="7bqAnTobCl2Co9yz6yof-55" style="edgeStyle=none;shape=connector;rounded=0;orthogonalLoop=1;jettySize=auto;html=1;exitX=1;exitY=0.5;exitDx=0;exitDy=0;entryX=0;entryY=0.5;entryDx=0;entryDy=0;labelBackgroundColor=default;strokeColor=default;align=center;verticalAlign=middle;fontFamily=Helvetica;fontSize=11;fontColor=default;endArrow=none;endFill=0;" edge="1" parent="1" source="7bqAnTobCl2Co9yz6yof-50" target="7bqAnTobCl2Co9yz6yof-52">
          <mxGeometry relative="1" as="geometry" />
        </mxCell>
        <mxCell id="7bqAnTobCl2Co9yz6yof-56" style="edgeStyle=none;shape=connector;rounded=0;orthogonalLoop=1;jettySize=auto;html=1;exitX=1;exitY=0.5;exitDx=0;exitDy=0;entryX=0;entryY=0.5;entryDx=0;entryDy=0;labelBackgroundColor=default;strokeColor=default;align=center;verticalAlign=middle;fontFamily=Helvetica;fontSize=11;fontColor=default;endArrow=none;endFill=0;" edge="1" parent="1" source="7bqAnTobCl2Co9yz6yof-50" target="7bqAnTobCl2Co9yz6yof-53">
          <mxGeometry relative="1" as="geometry" />
        </mxCell>
        <mxCell id="7bqAnTobCl2Co9yz6yof-57" style="edgeStyle=none;shape=connector;rounded=0;orthogonalLoop=1;jettySize=auto;html=1;exitX=1;exitY=0.5;exitDx=0;exitDy=0;entryX=0;entryY=0.5;entryDx=0;entryDy=0;labelBackgroundColor=default;strokeColor=default;align=center;verticalAlign=middle;fontFamily=Helvetica;fontSize=11;fontColor=default;endArrow=none;endFill=0;" edge="1" parent="1" source="7bqAnTobCl2Co9yz6yof-50" target="7bqAnTobCl2Co9yz6yof-54">
          <mxGeometry relative="1" as="geometry" />
        </mxCell>
        <mxCell id="7bqAnTobCl2Co9yz6yof-50" value="Export, Import" style="ellipse;whiteSpace=wrap;html=1;" vertex="1" parent="1">
          <mxGeometry x="520" y="1210" width="90" height="50" as="geometry" />
        </mxCell>
        <mxCell id="7bqAnTobCl2Co9yz6yof-52" value="Spreadsheets" style="ellipse;whiteSpace=wrap;html=1;" vertex="1" parent="1">
          <mxGeometry x="640" y="1150" width="90" height="50" as="geometry" />
        </mxCell>
        <mxCell id="7bqAnTobCl2Co9yz6yof-53" value="PDF" style="ellipse;whiteSpace=wrap;html=1;fillColor=#ffe6cc;strokeColor=#d79b00;" vertex="1" parent="1">
          <mxGeometry x="640" y="1210" width="90" height="50" as="geometry" />
        </mxCell>
        <mxCell id="7bqAnTobCl2Co9yz6yof-54" value="Word documents" style="ellipse;whiteSpace=wrap;html=1;fillColor=#ffe6cc;strokeColor=#d79b00;" vertex="1" parent="1">
          <mxGeometry x="640" y="1270" width="90" height="50" as="geometry" />
        </mxCell>
        <mxCell id="7bqAnTobCl2Co9yz6yof-64" style="edgeStyle=none;shape=connector;rounded=0;orthogonalLoop=1;jettySize=auto;html=1;exitX=1;exitY=0.5;exitDx=0;exitDy=0;entryX=0;entryY=0.5;entryDx=0;entryDy=0;labelBackgroundColor=default;strokeColor=default;align=center;verticalAlign=middle;fontFamily=Helvetica;fontSize=11;fontColor=default;endArrow=none;endFill=0;" edge="1" parent="1" source="7bqAnTobCl2Co9yz6yof-58" target="7bqAnTobCl2Co9yz6yof-60">
          <mxGeometry relative="1" as="geometry" />
        </mxCell>
        <mxCell id="7bqAnTobCl2Co9yz6yof-65" style="edgeStyle=none;shape=connector;rounded=0;orthogonalLoop=1;jettySize=auto;html=1;exitX=1;exitY=0.5;exitDx=0;exitDy=0;entryX=0;entryY=0.5;entryDx=0;entryDy=0;labelBackgroundColor=default;strokeColor=default;align=center;verticalAlign=middle;fontFamily=Helvetica;fontSize=11;fontColor=default;endArrow=none;endFill=0;" edge="1" parent="1" source="7bqAnTobCl2Co9yz6yof-58" target="7bqAnTobCl2Co9yz6yof-62">
          <mxGeometry relative="1" as="geometry" />
        </mxCell>
        <mxCell id="7bqAnTobCl2Co9yz6yof-58" value="Archive management" style="ellipse;whiteSpace=wrap;html=1;" vertex="1" parent="1">
          <mxGeometry x="520" y="1400" width="90" height="50" as="geometry" />
        </mxCell>
        <mxCell id="7bqAnTobCl2Co9yz6yof-60" value="Hide" style="ellipse;whiteSpace=wrap;html=1;" vertex="1" parent="1">
          <mxGeometry x="640" y="1340" width="90" height="50" as="geometry" />
        </mxCell>
        <mxCell id="7bqAnTobCl2Co9yz6yof-66" style="edgeStyle=none;shape=connector;rounded=0;orthogonalLoop=1;jettySize=auto;html=1;exitX=0;exitY=0.5;exitDx=0;exitDy=0;entryX=1;entryY=0.5;entryDx=0;entryDy=0;labelBackgroundColor=default;strokeColor=default;align=center;verticalAlign=middle;fontFamily=Helvetica;fontSize=11;fontColor=default;endArrow=none;endFill=0;" edge="1" parent="1" source="7bqAnTobCl2Co9yz6yof-61" target="7bqAnTobCl2Co9yz6yof-58">
          <mxGeometry relative="1" as="geometry" />
        </mxCell>
        <mxCell id="7bqAnTobCl2Co9yz6yof-61" value="Hard delete" style="ellipse;whiteSpace=wrap;html=1;" vertex="1" parent="1">
          <mxGeometry x="640" y="1460" width="90" height="50" as="geometry" />
        </mxCell>
        <mxCell id="7bqAnTobCl2Co9yz6yof-62" value="Soft delete" style="ellipse;whiteSpace=wrap;html=1;" vertex="1" parent="1">
          <mxGeometry x="640" y="1400" width="90" height="50" as="geometry" />
        </mxCell>
        <mxCell id="7bqAnTobCl2Co9yz6yof-77" style="edgeStyle=none;shape=connector;rounded=0;orthogonalLoop=1;jettySize=auto;html=1;exitX=1;exitY=0.5;exitDx=0;exitDy=0;entryX=0;entryY=0.5;entryDx=0;entryDy=0;labelBackgroundColor=default;strokeColor=default;align=center;verticalAlign=middle;fontFamily=Helvetica;fontSize=11;fontColor=default;endArrow=none;endFill=0;" edge="1" parent="1" source="7bqAnTobCl2Co9yz6yof-68" target="7bqAnTobCl2Co9yz6yof-69">
          <mxGeometry relative="1" as="geometry" />
        </mxCell>
        <mxCell id="7bqAnTobCl2Co9yz6yof-81" style="edgeStyle=none;shape=connector;rounded=0;orthogonalLoop=1;jettySize=auto;html=1;exitX=1;exitY=0.5;exitDx=0;exitDy=0;entryX=0;entryY=0.5;entryDx=0;entryDy=0;labelBackgroundColor=default;strokeColor=default;align=center;verticalAlign=middle;fontFamily=Helvetica;fontSize=11;fontColor=default;endArrow=none;endFill=0;" edge="1" parent="1" source="7bqAnTobCl2Co9yz6yof-68" target="7bqAnTobCl2Co9yz6yof-78">
          <mxGeometry relative="1" as="geometry" />
        </mxCell>
        <mxCell id="7bqAnTobCl2Co9yz6yof-83" style="edgeStyle=none;shape=connector;rounded=0;orthogonalLoop=1;jettySize=auto;html=1;exitX=1;exitY=0.5;exitDx=0;exitDy=0;entryX=0;entryY=0.5;entryDx=0;entryDy=0;labelBackgroundColor=default;strokeColor=default;align=center;verticalAlign=middle;fontFamily=Helvetica;fontSize=11;fontColor=default;endArrow=none;endFill=0;" edge="1" parent="1" source="7bqAnTobCl2Co9yz6yof-68" target="7bqAnTobCl2Co9yz6yof-82">
          <mxGeometry relative="1" as="geometry" />
        </mxCell>
        <mxCell id="7bqAnTobCl2Co9yz6yof-68" value="Category management" style="ellipse;whiteSpace=wrap;html=1;" vertex="1" parent="1">
          <mxGeometry x="520" y="1610" width="90" height="50" as="geometry" />
        </mxCell>
        <mxCell id="7bqAnTobCl2Co9yz6yof-69" value="CRUD" style="ellipse;whiteSpace=wrap;html=1;" vertex="1" parent="1">
          <mxGeometry x="640" y="1540" width="90" height="50" as="geometry" />
        </mxCell>
        <mxCell id="7bqAnTobCl2Co9yz6yof-74" style="edgeStyle=none;shape=connector;rounded=0;orthogonalLoop=1;jettySize=auto;html=1;exitX=1;exitY=0.5;exitDx=0;exitDy=0;entryX=0;entryY=0.5;entryDx=0;entryDy=0;labelBackgroundColor=default;strokeColor=default;align=center;verticalAlign=middle;fontFamily=Helvetica;fontSize=11;fontColor=default;endArrow=none;endFill=0;" edge="1" parent="1" source="7bqAnTobCl2Co9yz6yof-70" target="7bqAnTobCl2Co9yz6yof-71">
          <mxGeometry relative="1" as="geometry" />
        </mxCell>
        <mxCell id="7bqAnTobCl2Co9yz6yof-75" style="edgeStyle=none;shape=connector;rounded=0;orthogonalLoop=1;jettySize=auto;html=1;exitX=1;exitY=0.5;exitDx=0;exitDy=0;entryX=0;entryY=0.5;entryDx=0;entryDy=0;labelBackgroundColor=default;strokeColor=default;align=center;verticalAlign=middle;fontFamily=Helvetica;fontSize=11;fontColor=default;endArrow=none;endFill=0;" edge="1" parent="1" source="7bqAnTobCl2Co9yz6yof-70" target="7bqAnTobCl2Co9yz6yof-72">
          <mxGeometry relative="1" as="geometry" />
        </mxCell>
        <mxCell id="7bqAnTobCl2Co9yz6yof-70" value="Attributes" style="ellipse;whiteSpace=wrap;html=1;" vertex="1" parent="1">
          <mxGeometry x="640" y="1080" width="90" height="50" as="geometry" />
        </mxCell>
        <mxCell id="7bqAnTobCl2Co9yz6yof-71" value="Static" style="ellipse;whiteSpace=wrap;html=1;" vertex="1" parent="1">
          <mxGeometry x="760" y="1050" width="90" height="50" as="geometry" />
        </mxCell>
        <mxCell id="7bqAnTobCl2Co9yz6yof-72" value="Dynamic" style="ellipse;whiteSpace=wrap;html=1;" vertex="1" parent="1">
          <mxGeometry x="760" y="1110" width="90" height="50" as="geometry" />
        </mxCell>
        <mxCell id="7bqAnTobCl2Co9yz6yof-80" style="edgeStyle=none;shape=connector;rounded=0;orthogonalLoop=1;jettySize=auto;html=1;exitX=1;exitY=0.5;exitDx=0;exitDy=0;entryX=0;entryY=0.5;entryDx=0;entryDy=0;labelBackgroundColor=default;strokeColor=default;align=center;verticalAlign=middle;fontFamily=Helvetica;fontSize=11;fontColor=default;endArrow=none;endFill=0;" edge="1" parent="1" source="7bqAnTobCl2Co9yz6yof-78" target="7bqAnTobCl2Co9yz6yof-79">
          <mxGeometry relative="1" as="geometry" />
        </mxCell>
        <mxCell id="7bqAnTobCl2Co9yz6yof-78" value="Archive management" style="ellipse;whiteSpace=wrap;html=1;" vertex="1" parent="1">
          <mxGeometry x="640" y="1610" width="90" height="50" as="geometry" />
        </mxCell>
        <mxCell id="7bqAnTobCl2Co9yz6yof-79" value="Soft delete" style="ellipse;whiteSpace=wrap;html=1;" vertex="1" parent="1">
          <mxGeometry x="750" y="1610" width="90" height="50" as="geometry" />
        </mxCell>
        <mxCell id="7bqAnTobCl2Co9yz6yof-82" value="Attribute linking" style="ellipse;whiteSpace=wrap;html=1;" vertex="1" parent="1">
          <mxGeometry x="640" y="1680" width="90" height="50" as="geometry" />
        </mxCell>
        <mxCell id="7bqAnTobCl2Co9yz6yof-84" value="Review management" style="ellipse;whiteSpace=wrap;html=1;" vertex="1" parent="1">
          <mxGeometry x="520" y="1810" width="90" height="50" as="geometry" />
        </mxCell>
      </root>
    </mxGraphModel>
  </diagram>
</mxfile>
